<?xml version="1.0" encoding="utf-8"?>
<!-- Generator: Adobe Illustrator 27.4.0, SVG Export Plug-In . SVG Version: 6.00 Build 0)  -->
<svg version="1.1" id="Layer_1" xmlns="http://www.w3.org/2000/svg" xmlns:xlink="http://www.w3.org/1999/xlink" x="0px" y="0px"
	 viewBox="0 0 318.5 197.9" style="enable-background:new 0 0 318.5 197.9;" xml:space="preserve">
<style type="text/css">
	.st0{fill:#FFFFFF;}
	.st1{fill:#231F20;}
	.st2{fill:#ED1C24;}
</style>
<g>
	<g>
		<g>
			<polygon class="st0" points="6.6,52 160.6,6.1 314,52 314,146.5 160.6,192.5 5.3,147.2 			"/>
		</g>
		<g>
			<path class="st1" d="M159.7,197.9L0,151.1L0.1,47.6L159.6,0l158.9,47.6v102.7L159.7,197.9z M11,142.8l148.6,43.6l147.9-44.3V55.8
				L159.6,11.5L11.1,55.8L11,142.8z"/>
		</g>
		<g>
			<polyline class="st0" points="160.1,182.4 14.7,139.9 14.5,58.4 159.7,14.6 			"/>
		</g>
		<g>
			<polyline class="st0" points="159.6,14.3 304.5,58.6 304.5,139.4 159.6,182.7 			"/>
		</g>
		<g>
			<path class="st2" d="M53.8,86.7c-1.4-4.3-3.3-6.1-6.3-6.1c-3.1,0-4.8,1.9-4.8,5c0,6.9,19.4,9.4,19.4,23.6
				c0,7.8-5.3,12.9-14.5,12.9c-7,0-12.5-3.8-14.8-12.8l8.5-1.8c1,5.5,4.1,7.4,6.7,7.4c3,0,5.3-2,5.3-5.4C53.4,101,34,98.8,34,86.1
				c0-7.8,4.7-12.7,13.6-12.7c7.7,0,12.4,4.6,14,11L53.8,86.7z"/>
		</g>
		<g>
			<path class="st2" d="M68.9,118.4V74h23.8v7.7H77.5v10.4h11.5v7.7H77.5v10.9h15.7v7.7H68.9z"/>
		</g>
		<g>
			<path class="st2" d="M100.6,116.3V74h23.8v7.7h-15.1v10.4h11.5v7.7h-11.5v8.8H125v7.7H100.6z"/>
		</g>
		<g>
			<path class="st2" d="M131.2,74h12.1c9.9,0,15.5,4.3,15.8,15.7v10.8c-0.4,11.4-5.9,15.7-15.8,15.7h-12.1V74z M139.9,108.6h3
				c4.8,0,7.5-2.3,7.5-9.1v-8.8c0-6.4-2.1-9.1-7.5-9.1h-3V108.6z"/>
		</g>
		<g>
			<path class="st2" d="M165,74h8.2l6.2,30.3l0.1-4.2l6.4-26.1h8.5l6.4,26.1l0.1,4.2l6.2-30.3h8.3l-10.1,42.1h-8.5l-6.5-27.5h-0.1
				l-7,27.5h-8.5L165,74z"/>
		</g>
		<g>
			<path class="st2" d="M213.9,117.4L225.4,74h11.4l11.2,44.4h-8.5l-2.3-10.9H225l-2.5,9.8H213.9z M226.6,100.8h8.8l-4.3-16.7H231
				L226.6,100.8z"/>
		</g>
		<g>
			<path class="st2" d="M262.9,92.5l7.4-18.5h9.3l-12.5,27.3V121h-8.8v-19.6L245.9,74h9.3L262.9,92.5z"/>
		</g>
		<g>
			<rect x="121.8" y="52.6" class="st2" width="27.5" height="0.8"/>
		</g>
		<g>
			<rect x="170.1" y="52.7" class="st2" width="27.5" height="0.8"/>
		</g>
		<g>
			<rect x="195.9" y="134.3" class="st2" width="67" height="1"/>
		</g>
		<g>
			<rect x="50.9" y="134.3" class="st2" width="71" height="1"/>
		</g>
		<g>
			<path class="st2" d="M161.2,55.2c-0.7-4.7-1.5-7-1.5-11.5c0,0-2.1-10.8,5.7-17.2c0,0-7,4-7.1,13.4c-0.1,7.4,0.9,12.9,0.9,12.9
				c0,0,0,0,0,0c0,0,0.2,1.4,0.1,2.5L161.2,55.2z"/>
		</g>
		<g>
			<path class="st2" d="M158.7,45.6c0,0,0-1.8-2-3.6c0,0.1-0.5,1.1-2.4,1c-1.8-0.1-3-0.7-7.5-3.4c-2.6-1.7-4.5-3-7.9-2.3
				c0.2,0,3.1-2.6,10.6-2.1c5.3,0.9,8.1,3.3,7.4,6.4c0.1,0,1.4,1.3,1.8,2.4C158.7,44,158.7,45.6,158.7,45.6z"/>
		</g>
		<g>
			<path class="st0" d="M156.2,40.4c0,0-0.4-3.6-7.2-4.6C149.3,36,153.5,36.8,156.2,40.4z"/>
		</g>
		<g>
			<path class="st1" d="M159.6,183.3l-0.1,0L13.8,140.5l0.3-82.6l145.5-43.6l0.1,0l145.4,43.6l0,0.4l-0.5,81.4L159.6,183.3z
				 M14.8,139.7l144.8,42.5l144-43.4l0.5-80.3L159.6,15.3L15.1,58.6L14.8,139.7z"/>
		</g>
		<g>
			<g>
				<path class="st2" d="M128.2,140.6v-10.1h5.3v1.7h-3.4v2.3h2.6v1.7h-2.6v2.7h3.5v1.7H128.2z"/>
			</g>
			<g>
				<path class="st2" d="M141.3,133.3c-0.3-1-0.7-1.4-1.4-1.4c-0.7,0-1.1,0.4-1.1,1.1c0,1.5,4.3,1.6,4.3,4.8c0,1.7-1.2,2.9-3.2,2.9
					c-1.6,0-2.8-0.9-3.3-2.8l1.9-0.4c0.2,1.2,0.9,1.7,1.5,1.7c0.7,0,1.2-0.4,1.2-1.2c0-1.9-4.3-1.9-4.3-4.8c0-1.7,1-2.8,3-2.8
					c1.7,0,2.8,1,3.1,2.5L141.3,133.3z"/>
			</g>
			<g>
				<path class="st2" d="M152.5,130.5v1.7h-2.3v8.4h-1.9v-8.4H146v-1.7H152.5z"/>
			</g>
			<g>
				<path class="st2" d="M161.8,132.8h-1.6v-1.1c1.5-0.3,1.7-0.8,2.2-1.4h1.1v10.3h-1.8V132.8z"/>
			</g>
			<g>
				<path class="st2" d="M168.2,137.9c0,0.7,0.6,1.2,1.3,1.2c1,0,1.5-0.5,1.5-2.1v-0.9c-0.6,0.5-1.4,0.8-2.2,0.8
					c-1.8,0-2.7-1.4-2.7-3c0-2.1,1-3.5,3.3-3.5c2.2,0,3.4,1.3,3.4,3.5v3.4c0,2.2-1.2,3.5-3.4,3.5c-1.8,0-3-1-3.1-2.8H168.2z
					 M171,134c0-1.6-0.5-2.1-1.5-2.1c-1,0-1.5,0.7-1.5,1.9c0,1.1,0.6,1.6,1.5,1.6c0.6,0,1.1-0.4,1.5-0.8V134z"/>
			</g>
			<g>
				<path class="st2" d="M179.7,133.1c0-0.7-0.6-1.2-1.3-1.2c-1,0-1.5,0.5-1.5,2.1v0.9c0.6-0.5,1.4-0.8,2.2-0.8c1.8,0,2.7,1.4,2.7,3
					c0,2.1-1,3.5-3.3,3.5c-2.2,0-3.4-1.3-3.4-3.5v-3.4c0-2.2,1.2-3.5,3.4-3.5c1.8,0,3,1,3.1,2.8H179.7z M176.9,137
					c0,1.6,0.5,2.1,1.5,2.1c1,0,1.5-0.7,1.5-1.9c0-1.1-0.6-1.6-1.5-1.6c-0.6,0-1.1,0.4-1.5,0.8V137z"/>
			</g>
			<g>
				<path class="st2" d="M185.4,137.6c0,1,0.5,1.5,1.5,1.5c1,0,1.5-0.6,1.5-1.5c0-1.1-0.6-1.6-2-1.6v-1.6c1.3,0,1.8-0.4,1.8-1.3
					c0-0.7-0.5-1.2-1.3-1.2c-0.7,0-1.2,0.5-1.2,1.2h-1.8c0-1.9,1.4-2.8,3.1-2.8c1.8,0,3.1,1,3.1,2.7c0,0.9-0.4,1.8-1.2,2.2
					c1.1,0.4,1.5,1.3,1.5,2.4c0,2-1.5,3-3.3,3c-2.3,0-3.4-1.2-3.4-3.1H185.4z"/>
			</g>
		</g>
	</g>
	<g>
		<path class="st2" d="M287.5,76.8c0,1.7-1.4,3.1-3.1,3.1c-1.8,0-3.2-1.4-3.2-3.1c0-1.7,1.4-3.1,3.2-3.1
			C286.2,73.7,287.5,75,287.5,76.8z M282,76.8c0,1.4,1,2.5,2.4,2.5c1.3,0,2.3-1.1,2.3-2.4c0-1.4-1-2.5-2.4-2.5
			C283,74.3,282,75.4,282,76.8z M283.9,78.4h-0.7v-3.1c0.3-0.1,0.7-0.1,1.2-0.1c0.6,0,0.8,0.1,1.1,0.2c0.2,0.1,0.3,0.4,0.3,0.7
			c0,0.3-0.3,0.6-0.6,0.7v0c0.3,0.1,0.5,0.3,0.6,0.8c0.1,0.5,0.2,0.7,0.2,0.8h-0.8c-0.1-0.1-0.2-0.4-0.2-0.7
			c-0.1-0.3-0.2-0.5-0.6-0.5h-0.3V78.4z M283.9,76.6h0.3c0.4,0,0.7-0.1,0.7-0.4c0-0.3-0.2-0.5-0.7-0.5c-0.2,0-0.3,0-0.4,0V76.6z"/>
	</g>
</g>
</svg>
